<svg xmlns="http://www.w3.org/2000/svg" viewBox="0 0 24 24">
  <path d="M12 4C8.871094 4 6.34375 6.527344 6.34375 9.65625C6.34375 12.785156 8.871094 15.34375 12 15.34375C15.128906 15.34375 17.65625 12.785156 17.65625 9.65625C17.65625 6.527344 15.128906 4 12 4 Z M 4 7C2.34375 7 1 8.34375 1 10C1 11.65625 2.34375 13 4 13C4.71875 13 5.359375 12.734375 5.875 12.3125C5.769531 12.066406 5.703125 11.824219 5.625 11.5625C5.21875 11.992188 4.636719 12.25 4 12.25C3.117188 12.25 2.367188 11.738281 2 11L5.46875 11C5.378906 10.566406 5.34375 10.113281 5.34375 9.65625C5.34375 8.90625 5.457031 8.203125 5.6875 7.53125C5.207031 7.203125 4.628906 7 4 7 Z M 20 7C19.371094 7 18.792969 7.203125 18.3125 7.53125C18.542969 8.203125 18.65625 8.90625 18.65625 9.65625C18.65625 10.113281 18.621094 10.566406 18.53125 11L22 11C21.632813 11.738281 20.882813 12.25 20 12.25C19.363281 12.25 18.78125 11.992188 18.375 11.5625C18.296875 11.824219 18.230469 12.066406 18.125 12.3125C18.640625 12.734375 19.28125 13 20 13C21.65625 13 23 11.65625 23 10C23 8.34375 21.65625 7 20 7 Z M 8.21875 11.5625L15.78125 11.5625C15.082031 12.957031 13.664063 13.90625 12 13.90625C10.335938 13.90625 8.914063 12.957031 8.21875 11.5625 Z M 2.3125 13.59375C1.230469 13.878906 0.390625 14.550781 0 16L6.78125 16C7.117188 15.824219 7.464844 15.660156 7.84375 15.53125C7.410156 14.394531 6.648438 13.847656 5.6875 13.59375C5.1875 13.863281 4.605469 14 4 14C3.390625 14 2.8125 13.863281 2.3125 13.59375 Z M 18.3125 13.59375C17.351563 13.847656 16.589844 14.394531 16.15625 15.53125C16.535156 15.660156 16.882813 15.824219 17.21875 16L24 16C23.609375 14.550781 22.769531 13.878906 21.6875 13.59375C21.1875 13.863281 20.609375 14 20 14C19.394531 14 18.8125 13.863281 18.3125 13.59375 Z M 8.71875 16.3125C6.609375 16.867188 4.976563 18.179688 4.21875 21L19.78125 21C19.023438 18.175781 17.390625 16.867188 15.28125 16.3125C14.304688 16.835938 13.183594 17.125 12 17.125C10.816406 17.125 9.695313 16.835938 8.71875 16.3125Z" fill="#010101" />
</svg>