<svg xmlns="http://www.w3.org/2000/svg" viewBox="0 0 24 24">
  <path d="M17.5 1 A 1.5 1.5 0 0 0 16 2.5 A 1.5 1.5 0 0 0 17.5 4 A 1.5 1.5 0 0 0 19 2.5 A 1.5 1.5 0 0 0 17.5 1 z M 20.027344 3.9921875 A 1.0001 1.0001 0 0 0 19.486328 4.1425781L17.5 5.3339844L15.513672 4.1425781 A 1.0001 1.0001 0 0 0 14.943359 3.9941406 A 1.0001 1.0001 0 0 0 14.486328 5.8574219L15.556641 6.5L14.486328 7.1425781 A 1.0001 1.0001 0 1 0 15.513672 8.8574219L17.5 7.6660156L19.486328 8.8574219 A 1.0001 1.0001 0 1 0 20.513672 7.1425781L19.443359 6.5L20.513672 5.8574219 A 1.0001 1.0001 0 0 0 20.027344 3.9921875 z M 3 5C2.448 5 2 5.448 2 6L2 20C2 20.552 2.448 21 3 21C3.552 21 4 20.552 4 20L4 19L20 19L20 20C20 20.552 20.448 21 21 21C21.552 21 22 20.552 22 20L22 12C22 10.895 21.105 10 20 10L12 10C10.895 10 10 10.895 10 12L10 13L7 13L4 13L4 6C4 5.448 3.552 5 3 5 z M 7 13 A 2 2 0 0 0 9 11 A 2 2 0 0 0 7 9 A 2 2 0 0 0 5 11 A 2 2 0 0 0 7 13 z" fill="#010101" />
</svg>