<svg xmlns="http://www.w3.org/2000/svg" viewBox="0 0 26 26">
  <path d="M10 1C8.355469 1 7 2.355469 7 4L7 6L9 6L9 4C9 3.4375 9.4375 3 10 3L16 3C16.5625 3 17 3.4375 17 4L17 6L19 6L19 4C19 2.355469 17.644531 1 16 1 Z M 3 7C1.34375 7 0 8.34375 0 10L0 22C0 23.65625 1.34375 25 3 25L23 25C24.65625 25 26 23.65625 26 22L26 10C26 8.34375 24.65625 7 23 7 Z M 13 9.90625C16.367188 9.90625 19.09375 12.628906 19.09375 16C19.09375 19.371094 16.367188 22.09375 13 22.09375C9.632813 22.09375 6.90625 19.371094 6.90625 16C6.90625 12.628906 9.632813 9.90625 13 9.90625 Z M 12 13L12 15L10 15L10 17L12 17L12 19L14 19L14 17L16 17L16 15L14 15L14 13Z" fill="#010101" />
</svg>