<svg xmlns="http://www.w3.org/2000/svg" viewBox="0 0 30 30">
  <path d="M15 3C8.3844276 3 3 8.3844276 3 15C3 21.615572 8.3844276 27 15 27C21.615572 27 27 21.615572 27 15C27 8.3844276 21.615572 3 15 3 z M 15 5C20.534692 5 25 9.4653079 25 15C25 20.534692 20.534692 25 15 25C9.4653079 25 5 20.534692 5 15C5 9.4653079 9.4653079 5 15 5 z M 10.5 13 A 1.5 1.5 0 0 0 9 14.5 A 1.5 1.5 0 0 0 10.5 16 A 1.5 1.5 0 0 0 12 14.5 A 1.5 1.5 0 0 0 10.5 13 z M 19.5 13 A 1.5 1.5 0 0 0 18 14.5 A 1.5 1.5 0 0 0 19.5 16 A 1.5 1.5 0 0 0 21 14.5 A 1.5 1.5 0 0 0 19.5 13 z M 11.994141 18.992188 A 1.0001 1.0001 0 0 0 11.474609 20.808594C12.278916 21.393119 13.483333 22 15 22C16.516667 22 17.721548 21.393632 18.525391 20.808594 A 1.0002946 1.0002946 0 1 0 17.347656 19.191406C16.777499 19.606368 15.983333 20 15 20C14.016667 20 13.222084 19.606881 12.650391 19.191406 A 1.0001 1.0001 0 0 0 12.09375 18.992188 A 1.0001 1.0001 0 0 0 11.994141 18.992188 z" fill="#010101" />
</svg>