<svg xmlns="http://www.w3.org/2000/svg" viewBox="0 0 26 26">
  <path d="M22.382813 13.730469C22.304688 13.707031 21.820313 13.484375 22.125 12.546875L22.117188 12.546875C22.90625 11.726563 23.507813 10.398438 23.507813 9.09375C23.507813 7.085938 22.195313 6.035156 20.667969 6.035156C19.140625 6.035156 17.835938 7.085938 17.835938 9.09375C17.835938 10.402344 18.433594 11.738281 19.226563 12.558594C19.339844 12.867188 19.335938 13.105469 19.277344 13.28125C20.09375 13.984375 21.277344 15.4375 20.871094 18.203125C20.476563 16.945313 19.882813 15.804688 19.144531 14.941406C18.417969 13.953125 16.695313 13.058594 15.113281 12.527344C15.019531 12.496094 14.421875 12.222656 14.796875 11.070313L14.789063 11.070313C15.761719 10.058594 16.5 8.421875 16.5 6.8125C16.5 4.339844 14.882813 3.042969 13 3.042969C11.117188 3.042969 9.507813 4.339844 9.507813 6.8125C9.507813 8.429688 10.246094 10.070313 11.21875 11.082031C11.601563 12.097656 10.921875 12.476563 10.777344 12.527344C9.757813 12.902344 8.652344 13.4375 7.820313 14.046875C7.773438 14.078125 7.734375 14.117188 7.691406 14.148438C7.492188 14.304688 7.316406 14.460938 7.15625 14.621094C7.066406 14.710938 6.976563 14.804688 6.890625 14.902344C6.890625 14.902344 6.890625 14.90625 6.890625 14.90625C6.132813 15.769531 5.53125 16.929688 5.128906 18.203125C4.722656 15.4375 5.902344 13.984375 6.722656 13.285156C6.664063 13.109375 6.660156 12.871094 6.773438 12.558594C7.566406 11.738281 8.164063 10.40625 8.164063 9.09375C8.164063 7.089844 6.859375 6.035156 5.332031 6.035156C3.804688 6.035156 2.492188 7.089844 2.492188 9.09375C2.492188 10.402344 3.09375 11.726563 3.882813 12.550781L3.875 12.550781C4.179688 13.488281 3.695313 13.707031 3.617188 13.734375C1.941406 14.296875 0.0546875 15.359375 0.0546875 16.449219C0.0546875 16.734375 0.0546875 18.761719 0.0546875 19.046875C0.0546875 20.488281 4.859375 22.929688 13.019531 22.929688C21.179688 22.929688 25.945313 20.488281 25.945313 19.046875C25.945313 18.765625 25.945313 16.734375 25.945313 16.449219C25.945313 15.355469 24.0625 14.296875 22.382813 13.730469Z" fill="#010101" />
</svg>